# xmcd CD database file
# Copyright (C) 1993-1998 Ti Kan
# 
# Track frame offsets:
#     183
#     15655
#     30880
#     45098
#     59343
#     72028
#     85583
#     99538
#     113730
#     127140
#     138983
#     151003
#     164558
#     177728
#     191883
#     205725
#     220030
#     233788
#     247373
#     263075
#     277823
#     289750
#     301805
#     314413
# 
# Disc length: 4364 seconds
# 
# Revision: 2
# Processed by: cddbd v1.4PL0 Copyright (c) Steve Scherf et al.
# Submitted via: Gronk 1.4
# 
DISCID=4d110a18
DTITLE=Peetie Wheatstraw - The Devil's Son-In-Law
DYEAR=1900
DGENRE=blues
TTITLE0=Midnight Blues
TTITLE1=All Night Long Blues
TTITLE2=Meat Cutter Blues
TTITLE3=Drinking Man Blues
TTITLE4=Little House
TTITLE5=Would You Would You Mama
TTITLE6=Little Low Mellow Mama
TTITLE7=One To Twelve
TTITLE8=Sinking Sun Blues
TTITLE9=You Can't Stop Me From Drinking
TTITLE10=Confidence Man
TTITLE11=Big Money Blues
TTITLE12=Five Minutes Blues
TTITLE13=Jaybird Blues
TTITLE14=Suicide Blues
TTITLE15=Pocket Knife Blues
TTITLE16=Cuttin 'Em Slow
TTITLE17=Look Out For Yourself
TTITLE18=No 'Count Woman
TTITLE19=What's That?
TTITLE20=I Don't Feel Sleepy
TTITLE21=My Little Bit
TTITLE22=Seeing Is Believing
TTITLE23=I'm A Little Piece Of Leather
EXTD=
EXTT0=
EXTT1=
EXTT2=
EXTT3=
EXTT4=
EXTT5=
EXTT6=
EXTT7=
EXTT8=
EXTT9=
EXTT10=
EXTT11=
EXTT12=
EXTT13=
EXTT14=
EXTT15=
EXTT16=
EXTT17=
EXTT18=
EXTT19=
EXTT20=
EXTT21=
EXTT22=
EXTT23=
PLAYORDER=
